<?xml version="1.0" encoding="UTF-8" standalone="no"?>
<!DOCTYPE svg PUBLIC "-//W3C//DTD SVG 1.1//EN"
 "http://www.w3.org/Graphics/SVG/1.1/DTD/svg11.dtd">
<!-- Generated by graphviz version 2.42.1 (20190717.1914)
 -->
<!-- Title: g Pages: 1 -->
<svg width="230pt" height="473pt"
 viewBox="0.00 0.00 230.00 472.80" xmlns="http://www.w3.org/2000/svg" xmlns:xlink="http://www.w3.org/1999/xlink">
<g id="graph0" class="graph" transform="scale(1 1) rotate(0) translate(4 468.8)">
<title>g</title>
<polygon fill="white" stroke="transparent" points="-4,4 -4,-468.8 226,-468.8 226,4 -4,4"/>
<!-- a -->
<g id="node1" class="node">
<title>a</title>
<ellipse fill="#eecc80" stroke="#eecc80" cx="111" cy="-442.8" rx="27" ry="18"/>
<ellipse fill="none" stroke="#eecc80" cx="111" cy="-442.8" rx="31" ry="22"/>
<text text-anchor="middle" x="111" y="-438.6" font-family="Times,serif" font-size="14.00">a</text>
</g>
<!-- b -->
<g id="node2" class="node">
<title>b</title>
<ellipse fill="#eecc80" stroke="#eecc80" cx="111" cy="-361.8" rx="27" ry="18"/>
<ellipse fill="none" stroke="#eecc80" cx="111" cy="-361.8" rx="31" ry="22"/>
<text text-anchor="middle" x="111" y="-357.6" font-family="Times,serif" font-size="14.00">b</text>
</g>
<!-- a&#45;&gt;b -->
<g id="edge1" class="edge">
<title>a&#45;&gt;b</title>
<path fill="none" stroke="red" stroke-dasharray="5,2" d="M111,-420.63C111,-412.48 111,-403 111,-394.1"/>
<polygon fill="red" stroke="red" points="114.5,-394.03 111,-384.03 107.5,-394.03 114.5,-394.03"/>
</g>
<!-- c -->
<g id="node3" class="node">
<title>c</title>
<ellipse fill="#eecc80" stroke="#eecc80" cx="31" cy="-280.8" rx="27" ry="18"/>
<ellipse fill="none" stroke="#eecc80" cx="31" cy="-280.8" rx="31" ry="22"/>
<text text-anchor="middle" x="31" y="-276.6" font-family="Times,serif" font-size="14.00">c</text>
</g>
<!-- b&#45;&gt;c -->
<g id="edge2" class="edge">
<title>b&#45;&gt;c</title>
<path fill="none" stroke="black" d="M93.25,-343.27C82.19,-332.35 67.81,-318.15 55.66,-306.15"/>
<polygon fill="black" stroke="black" points="58,-303.55 48.43,-299.01 53.09,-308.53 58,-303.55"/>
</g>
<!-- d -->
<g id="node4" class="node">
<title>d</title>
<ellipse fill="#eecc80" stroke="#eecc80" cx="111" cy="-280.8" rx="27" ry="18"/>
<ellipse fill="none" stroke="#eecc80" cx="111" cy="-280.8" rx="31" ry="22"/>
<text text-anchor="middle" x="111" y="-276.6" font-family="Times,serif" font-size="14.00">d</text>
</g>
<!-- b&#45;&gt;d -->
<g id="edge3" class="edge">
<title>b&#45;&gt;d</title>
<path fill="none" stroke="black" d="M111,-339.63C111,-331.48 111,-322 111,-313.1"/>
<polygon fill="black" stroke="black" points="107,-303.03 115,-303.03 115,-311.03 107,-311.03 107,-303.03"/>
<polyline fill="none" stroke="black" points="111,-311.03 111,-313.03 "/>
</g>
<!-- e -->
<g id="node5" class="node">
<title>e</title>
<ellipse fill="#eecc80" stroke="#eecc80" cx="191" cy="-280.8" rx="27" ry="18"/>
<ellipse fill="none" stroke="#eecc80" cx="191" cy="-280.8" rx="31" ry="22"/>
<text text-anchor="middle" x="191" y="-276.6" font-family="Times,serif" font-size="14.00">e</text>
</g>
<!-- b&#45;&gt;e -->
<g id="edge4" class="edge">
<title>b&#45;&gt;e</title>
<path fill="none" stroke="black" d="M128.75,-343.27C142.1,-330.08 160.3,-312.12 173.57,-299.01"/>
</g>
<!-- f -->
<g id="node6" class="node">
<title>f</title>
<ellipse fill="#eecc80" stroke="#eecc80" cx="111" cy="-199.8" rx="27" ry="18"/>
<ellipse fill="none" stroke="#eecc80" cx="111" cy="-199.8" rx="31" ry="22"/>
<text text-anchor="middle" x="111" y="-195.6" font-family="Times,serif" font-size="14.00">f</text>
</g>
<!-- d&#45;&gt;f -->
<g id="edge5" class="edge">
<title>d&#45;&gt;f</title>
<path fill="none" stroke="black" d="M111,-248.57C111,-243.14 111,-237.5 111,-232.08"/>
<polygon fill="black" stroke="black" points="107.5,-248.63 111,-258.63 114.5,-248.63 107.5,-248.63"/>
<polygon fill="black" stroke="black" points="114.5,-232.03 111,-222.03 107.5,-232.03 114.5,-232.03"/>
</g>
<!-- h -->
<g id="node7" class="node">
<title>h</title>
<ellipse fill="#eecc80" stroke="#eecc80" cx="84" cy="-103" rx="27" ry="18"/>
<ellipse fill="none" stroke="#eecc80" cx="84" cy="-103" rx="31" ry="22"/>
<text text-anchor="middle" x="84" y="-98.8" font-family="Times,serif" font-size="14.00">h</text>
</g>
<!-- f&#45;&gt;h -->
<g id="edge6" class="edge">
<title>f&#45;&gt;h</title>
<path fill="none" stroke="black" d="M105.01,-177.76C101.38,-165.03 96.7,-148.58 92.67,-134.45"/>
<polygon fill="black" stroke="black" points="95.99,-133.31 89.88,-124.65 89.26,-135.23 95.99,-133.31"/>
<text text-anchor="middle" x="107" y="-147.2" font-family="Times,serif" font-size="14.00">go</text>
</g>
<!-- k -->
<g id="node8" class="node">
<title>k</title>
<ellipse fill="#eecc80" stroke="#eecc80" cx="164" cy="-103" rx="27" ry="18"/>
<ellipse fill="none" stroke="#eecc80" cx="164" cy="-103" rx="31" ry="22"/>
<text text-anchor="middle" x="164" y="-98.8" font-family="Times,serif" font-size="14.00">k</text>
</g>
<!-- f&#45;&gt;k -->
<g id="edge7" class="edge">
<title>f&#45;&gt;k</title>
<path fill="none" stroke="black" d="M121.98,-179.16C129.23,-166.19 138.87,-148.95 147.09,-134.25"/>
<polygon fill="black" stroke="black" points="147.18,-134.09 146.61,-126.9 153.03,-123.62 153.6,-130.81 147.18,-134.09"/>
</g>
<!-- y -->
<g id="node9" class="node">
<title>y</title>
<ellipse fill="#eecc80" stroke="#eecc80" cx="164" cy="-22" rx="27" ry="18"/>
<ellipse fill="none" stroke="#eecc80" cx="164" cy="-22" rx="31" ry="22"/>
<text text-anchor="middle" x="164" y="-17.8" font-family="Times,serif" font-size="14.00">y</text>
</g>
<!-- k&#45;&gt;y -->
<g id="edge8" class="edge">
<title>k&#45;&gt;y</title>
<path fill="none" stroke="black" d="M164,-80.83C164,-72.68 164,-63.2 164,-54.3"/>
<polygon fill="black" stroke="black" points="167.5,-54.23 164,-44.23 160.5,-54.23 167.5,-54.23"/>
<text text-anchor="middle" x="153.5" y="-48.43" font-family="Times,serif" font-size="14.00">哈哈</text>
<text text-anchor="middle" x="153.5" y="-68.23" font-family="Times,serif" font-size="14.00">洗洗</text>
</g>
</g>
</svg>
