<?xml version="1.0" encoding="UTF-8" standalone="no"?>
<!DOCTYPE svg PUBLIC "-//W3C//DTD SVG 1.1//EN"
 "http://www.w3.org/Graphics/SVG/1.1/DTD/svg11.dtd">
<!-- Generated by graphviz version 2.42.1 (20190717.1914)
 -->
<!-- Title: g Pages: 1 -->
<svg width="316pt" height="282pt"
 viewBox="0.00 0.00 315.50 281.80" xmlns="http://www.w3.org/2000/svg" xmlns:xlink="http://www.w3.org/1999/xlink">
<g id="graph0" class="graph" transform="scale(1 1) rotate(0) translate(4 277.8)">
<title>g</title>
<polygon fill="white" stroke="transparent" points="-4,4 -4,-277.8 311.5,-277.8 311.5,4 -4,4"/>
<!-- node0 -->
<g id="node1" class="node">
<title>node0</title>
<polygon fill="none" stroke="black" points="0,-35.9 0,-215.9 19.5,-215.9 19.5,-35.9 0,-35.9"/>
<text text-anchor="middle" x="9.75" y="-199.3" font-family="Times,serif" font-size="14.00"> </text>
<polyline fill="none" stroke="black" points="0,-191.1 19.5,-191.1 "/>
<text text-anchor="middle" x="9.75" y="-174" font-family="Times,serif" font-size="14.00"> </text>
<polyline fill="none" stroke="black" points="0,-165.3 19.5,-165.3 "/>
<text text-anchor="middle" x="9.75" y="-148.2" font-family="Times,serif" font-size="14.00"> </text>
<polyline fill="none" stroke="black" points="0,-139.5 19.5,-139.5 "/>
<text text-anchor="middle" x="9.75" y="-122.4" font-family="Times,serif" font-size="14.00"> </text>
<polyline fill="none" stroke="black" points="0,-113.7 19.5,-113.7 "/>
<text text-anchor="middle" x="9.75" y="-96.6" font-family="Times,serif" font-size="14.00"> </text>
<polyline fill="none" stroke="black" points="0,-87.9 19.5,-87.9 "/>
<text text-anchor="middle" x="9.75" y="-70.8" font-family="Times,serif" font-size="14.00"> </text>
<polyline fill="none" stroke="black" points="0,-62.1 19.5,-62.1 "/>
<text text-anchor="middle" x="9.75" y="-45" font-family="Times,serif" font-size="14.00"> </text>
</g>
<!-- node1 -->
<g id="node2" class="node">
<title>node1</title>
<polygon fill="none" stroke="black" points="55.5,-248.5 55.5,-273.3 163.5,-273.3 163.5,-248.5 55.5,-248.5"/>
<text text-anchor="middle" x="76.11" y="-256.7" font-family="Times,serif" font-size="14.00">a13</text>
<polyline fill="none" stroke="black" points="96.71,-248.5 96.71,-273.3 "/>
<text text-anchor="middle" x="117.71" y="-256.7" font-family="Times,serif" font-size="14.00">111</text>
<polyline fill="none" stroke="black" points="138.71,-248.5 138.71,-273.3 "/>
<text text-anchor="middle" x="150.96" y="-256.7" font-family="Times,serif" font-size="14.00"> </text>
</g>
<!-- node0&#45;&gt;node1 -->
<g id="edge1" class="edge">
<title>node0:f0&#45;&gt;node1:n</title>
<path fill="none" stroke="black" d="M19.5,-203.9C21.03,-203.9 53.63,-228.52 68.83,-240.96"/>
<polygon fill="black" stroke="black" points="66.74,-243.79 76.5,-247.9 71.43,-238.6 66.74,-243.79"/>
</g>
<!-- node2 -->
<g id="node3" class="node">
<title>node2</title>
<polygon fill="none" stroke="black" points="55.5,-186.5 55.5,-211.3 163.5,-211.3 163.5,-186.5 55.5,-186.5"/>
<text text-anchor="middle" x="77.5" y="-194.7" font-family="Times,serif" font-size="14.00">hello</text>
<polyline fill="none" stroke="black" points="99.5,-186.5 99.5,-211.3 "/>
<text text-anchor="middle" x="121.5" y="-194.7" font-family="Times,serif" font-size="14.00">2387</text>
<polyline fill="none" stroke="black" points="143.5,-186.5 143.5,-211.3 "/>
<text text-anchor="middle" x="153.25" y="-194.7" font-family="Times,serif" font-size="14.00"> </text>
</g>
<!-- node0&#45;&gt;node2 -->
<g id="edge2" class="edge">
<title>node0:f1&#45;&gt;node2:n</title>
<path fill="none" stroke="black" d="M19.5,-177.9C33.97,-177.9 36.5,-190.72 45.74,-196.32"/>
<polygon fill="black" stroke="black" points="44.94,-199.73 55.5,-198.9 46.72,-192.96 44.94,-199.73"/>
</g>
<!-- node3 -->
<g id="node4" class="node">
<title>node3</title>
<polygon fill="none" stroke="black" points="55.5,-124.5 55.5,-149.3 163.5,-149.3 163.5,-124.5 55.5,-124.5"/>
<text text-anchor="middle" x="76" y="-132.7" font-family="Times,serif" font-size="14.00">g23</text>
<polyline fill="none" stroke="black" points="96.5,-124.5 96.5,-149.3 "/>
<text text-anchor="middle" x="117.5" y="-132.7" font-family="Times,serif" font-size="14.00">344</text>
<polyline fill="none" stroke="black" points="138.5,-124.5 138.5,-149.3 "/>
<text text-anchor="middle" x="150.75" y="-132.7" font-family="Times,serif" font-size="14.00"> </text>
</g>
<!-- node0&#45;&gt;node3 -->
<g id="edge3" class="edge">
<title>node0:f2&#45;&gt;node3:n</title>
<path fill="none" stroke="black" d="M19.5,-152.9C32.91,-152.9 36.62,-143.52 45.49,-139.12"/>
<polygon fill="black" stroke="black" points="46.5,-142.49 55.5,-136.9 44.98,-135.65 46.5,-142.49"/>
</g>
<!-- node4 -->
<g id="node5" class="node">
<title>node4</title>
<polygon fill="none" stroke="black" points="55.5,-62.5 55.5,-87.3 163.5,-87.3 163.5,-62.5 55.5,-62.5"/>
<text text-anchor="middle" x="78.5" y="-70.7" font-family="Times,serif" font-size="14.00">k535</text>
<polyline fill="none" stroke="black" points="101.5,-62.5 101.5,-87.3 "/>
<text text-anchor="middle" x="121.5" y="-70.7" font-family="Times,serif" font-size="14.00">246</text>
<polyline fill="none" stroke="black" points="141.5,-62.5 141.5,-87.3 "/>
<text text-anchor="middle" x="152.25" y="-70.7" font-family="Times,serif" font-size="14.00"> </text>
</g>
<!-- node0&#45;&gt;node4 -->
<g id="edge4" class="edge">
<title>node0:f5&#45;&gt;node4:n</title>
<path fill="none" stroke="black" d="M19.5,-74.9C31.5,-74.9 36.75,-74.9 45.38,-74.9"/>
<polygon fill="black" stroke="black" points="45.5,-78.4 55.5,-74.9 45.5,-71.4 45.5,-78.4"/>
</g>
<!-- node5 -->
<g id="node6" class="node">
<title>node5</title>
<polygon fill="none" stroke="black" points="55.5,-0.5 55.5,-25.3 163.5,-25.3 163.5,-0.5 55.5,-0.5"/>
<text text-anchor="middle" x="77.5" y="-8.7" font-family="Times,serif" font-size="14.00">h25</text>
<polyline fill="none" stroke="black" points="99.5,-0.5 99.5,-25.3 "/>
<text text-anchor="middle" x="118" y="-8.7" font-family="Times,serif" font-size="14.00">13</text>
<polyline fill="none" stroke="black" points="136.5,-0.5 136.5,-25.3 "/>
<text text-anchor="middle" x="149.75" y="-8.7" font-family="Times,serif" font-size="14.00"> </text>
</g>
<!-- node0&#45;&gt;node5 -->
<g id="edge5" class="edge">
<title>node0:f6&#45;&gt;node5:n</title>
<path fill="none" stroke="black" d="M19.5,-48.9C30.33,-48.9 59.64,-43.32 71.94,-34.27"/>
<polygon fill="black" stroke="black" points="74.89,-36.17 77.5,-25.9 69.05,-32.3 74.89,-36.17"/>
</g>
<!-- node6 -->
<g id="node7" class="node">
<title>node6</title>
<polygon fill="none" stroke="black" points="199.5,-186.5 199.5,-211.3 307.5,-211.3 307.5,-186.5 199.5,-186.5"/>
<text text-anchor="middle" x="217.95" y="-194.7" font-family="Times,serif" font-size="14.00">dj</text>
<polyline fill="none" stroke="black" points="236.39,-186.5 236.39,-211.3 "/>
<text text-anchor="middle" x="256.89" y="-194.7" font-family="Times,serif" font-size="14.00">04</text>
<polyline fill="none" stroke="black" points="277.39,-186.5 277.39,-211.3 "/>
<text text-anchor="middle" x="292.14" y="-194.7" font-family="Times,serif" font-size="14.00"> </text>
</g>
<!-- node2&#45;&gt;node6 -->
<g id="edge6" class="edge">
<title>node2:p&#45;&gt;node6:n</title>
<path fill="none" stroke="black" d="M163.5,-198.9C175.5,-198.9 180.75,-198.9 189.38,-198.9"/>
<polygon fill="black" stroke="black" points="189.5,-202.4 199.5,-198.9 189.5,-195.4 189.5,-202.4"/>
</g>
<!-- node7 -->
<g id="node8" class="node">
<title>node7</title>
<polygon fill="none" stroke="black" points="199.5,-62.5 199.5,-87.3 307.5,-87.3 307.5,-62.5 199.5,-62.5"/>
<text text-anchor="middle" x="217.22" y="-70.7" font-family="Times,serif" font-size="14.00">sbd</text>
<polyline fill="none" stroke="black" points="234.94,-62.5 234.94,-87.3 "/>
<text text-anchor="middle" x="260.94" y="-70.7" font-family="Times,serif" font-size="14.00">0x543</text>
<polyline fill="none" stroke="black" points="286.94,-62.5 286.94,-87.3 "/>
<text text-anchor="middle" x="297.19" y="-70.7" font-family="Times,serif" font-size="14.00"> </text>
</g>
<!-- node4&#45;&gt;node7 -->
<g id="edge7" class="edge">
<title>node4:p&#45;&gt;node7:n</title>
<path fill="none" stroke="black" d="M163.5,-74.9C175.5,-74.9 180.75,-74.9 189.38,-74.9"/>
<polygon fill="black" stroke="black" points="189.5,-78.4 199.5,-74.9 189.5,-71.4 189.5,-78.4"/>
</g>
</g>
</svg>
