<?xml version="1.0" encoding="UTF-8" standalone="no"?>
<!DOCTYPE svg PUBLIC "-//W3C//DTD SVG 1.1//EN"
 "http://www.w3.org/Graphics/SVG/1.1/DTD/svg11.dtd">
<!-- Generated by graphviz version 2.42.1 (20190717.1914)
 -->
<!-- Title: g Pages: 1 -->
<svg width="336pt" height="343pt"
 viewBox="0.00 0.00 335.78 342.80" xmlns="http://www.w3.org/2000/svg" xmlns:xlink="http://www.w3.org/1999/xlink">
<g id="graph0" class="graph" transform="scale(1 1) rotate(0) translate(4 338.8)">
<title>g</title>
<polygon fill="white" stroke="transparent" points="-4,4 -4,-338.8 331.78,-338.8 331.78,4 -4,4"/>
<!-- node0 -->
<g id="node1" class="node">
<title>node0</title>
<polygon fill="none" stroke="black" points="75,-309.5 75,-334.3 140.11,-334.3 140.11,-309.5 75,-309.5"/>
<text text-anchor="middle" x="84.75" y="-317.7" font-family="Times,serif" font-size="14.00"> </text>
<polyline fill="none" stroke="black" points="94.5,-309.5 94.5,-334.3 "/>
<text text-anchor="middle" x="107.55" y="-317.7" font-family="Times,serif" font-size="14.00">A</text>
<polyline fill="none" stroke="black" points="120.61,-309.5 120.61,-334.3 "/>
<text text-anchor="middle" x="130.36" y="-317.7" font-family="Times,serif" font-size="14.00"> </text>
</g>
<!-- node1 -->
<g id="node2" class="node">
<title>node1</title>
<polygon fill="none" stroke="black" points="98.39,-247.7 98.39,-272.5 162.72,-272.5 162.72,-247.7 98.39,-247.7"/>
<text text-anchor="middle" x="108.14" y="-255.9" font-family="Times,serif" font-size="14.00"> </text>
<polyline fill="none" stroke="black" points="117.89,-247.7 117.89,-272.5 "/>
<text text-anchor="middle" x="130.55" y="-255.9" font-family="Times,serif" font-size="14.00">B</text>
<polyline fill="none" stroke="black" points="143.22,-247.7 143.22,-272.5 "/>
<text text-anchor="middle" x="152.97" y="-255.9" font-family="Times,serif" font-size="14.00"> </text>
</g>
<!-- node0&#45;&gt;node1 -->
<g id="edge1" class="edge">
<title>node0:f2&#45;&gt;node1:f1</title>
<path fill="none" stroke="black" d="M130.55,-309C130.55,-297 130.55,-291.75 130.55,-283.12"/>
<polygon fill="black" stroke="black" points="134.05,-283 130.55,-273 127.05,-283 134.05,-283"/>
</g>
<!-- node2 -->
<g id="node3" class="node">
<title>node2</title>
<polygon fill="none" stroke="black" points="29.39,-185.9 29.39,-210.7 93.72,-210.7 93.72,-185.9 29.39,-185.9"/>
<text text-anchor="middle" x="39.14" y="-194.1" font-family="Times,serif" font-size="14.00"> </text>
<polyline fill="none" stroke="black" points="48.89,-185.9 48.89,-210.7 "/>
<text text-anchor="middle" x="61.55" y="-194.1" font-family="Times,serif" font-size="14.00">C</text>
<polyline fill="none" stroke="black" points="74.22,-185.9 74.22,-210.7 "/>
<text text-anchor="middle" x="83.97" y="-194.1" font-family="Times,serif" font-size="14.00"> </text>
</g>
<!-- node1&#45;&gt;node2 -->
<g id="edge2" class="edge">
<title>node1:f0&#45;&gt;node2:f1</title>
<path fill="none" stroke="black" d="M108.55,-247.2C108.55,-225 75.09,-233.37 64.64,-220.72"/>
<polygon fill="black" stroke="black" points="67.97,-219.63 61.55,-211.2 61.31,-221.79 67.97,-219.63"/>
</g>
<!-- node3 -->
<g id="node4" class="node">
<title>node3</title>
<polygon fill="none" stroke="black" points="123,-185.9 123,-210.7 188.11,-210.7 188.11,-185.9 123,-185.9"/>
<text text-anchor="middle" x="132.75" y="-194.1" font-family="Times,serif" font-size="14.00"> </text>
<polyline fill="none" stroke="black" points="142.5,-185.9 142.5,-210.7 "/>
<text text-anchor="middle" x="155.55" y="-194.1" font-family="Times,serif" font-size="14.00">D</text>
<polyline fill="none" stroke="black" points="168.61,-185.9 168.61,-210.7 "/>
<text text-anchor="middle" x="178.36" y="-194.1" font-family="Times,serif" font-size="14.00"> </text>
</g>
<!-- node1&#45;&gt;node3 -->
<g id="edge3" class="edge">
<title>node1:f1&#45;&gt;node3:f2</title>
<path fill="none" stroke="black" d="M130.55,-247.2C130.55,-224.7 164.73,-233.52 175.4,-220.81"/>
<polygon fill="black" stroke="black" points="178.77,-221.79 178.55,-211.2 172.11,-219.61 178.77,-221.79"/>
</g>
<!-- node9 -->
<g id="node10" class="node">
<title>node9</title>
<polygon fill="none" stroke="black" points="0,-124.1 0,-148.9 65.11,-148.9 65.11,-124.1 0,-124.1"/>
<text text-anchor="middle" x="9.75" y="-132.3" font-family="Times,serif" font-size="14.00"> </text>
<polyline fill="none" stroke="black" points="19.5,-124.1 19.5,-148.9 "/>
<text text-anchor="middle" x="32.55" y="-132.3" font-family="Times,serif" font-size="14.00">K</text>
<polyline fill="none" stroke="black" points="45.61,-124.1 45.61,-148.9 "/>
<text text-anchor="middle" x="55.36" y="-132.3" font-family="Times,serif" font-size="14.00"> </text>
</g>
<!-- node2&#45;&gt;node9 -->
<g id="edge9" class="edge">
<title>node2:f2&#45;&gt;node9:f1</title>
<path fill="none" stroke="black" d="M83.55,-185.4C83.55,-161.77 46.57,-172.4 35.59,-158.94"/>
<polygon fill="black" stroke="black" points="38.92,-157.87 32.55,-149.4 32.25,-159.99 38.92,-157.87"/>
</g>
<!-- node4 -->
<g id="node5" class="node">
<title>node4</title>
<polygon fill="none" stroke="black" points="82.78,-124.1 82.78,-148.9 146.33,-148.9 146.33,-124.1 82.78,-124.1"/>
<text text-anchor="middle" x="92.53" y="-132.3" font-family="Times,serif" font-size="14.00"> </text>
<polyline fill="none" stroke="black" points="102.28,-124.1 102.28,-148.9 "/>
<text text-anchor="middle" x="114.55" y="-132.3" font-family="Times,serif" font-size="14.00">E</text>
<polyline fill="none" stroke="black" points="126.83,-124.1 126.83,-148.9 "/>
<text text-anchor="middle" x="136.58" y="-132.3" font-family="Times,serif" font-size="14.00"> </text>
</g>
<!-- node3&#45;&gt;node4 -->
<g id="edge4" class="edge">
<title>node3:f0&#45;&gt;node4:f0</title>
<path fill="none" stroke="black" d="M132.55,-185.4C132.55,-165.59 105.12,-170.31 95.69,-158.93"/>
<polygon fill="black" stroke="black" points="99.01,-157.8 92.55,-149.4 92.36,-159.99 99.01,-157.8"/>
</g>
<!-- node5 -->
<g id="node6" class="node">
<title>node5</title>
<polygon fill="none" stroke="black" points="164.16,-124.1 164.16,-148.9 226.94,-148.9 226.94,-124.1 164.16,-124.1"/>
<text text-anchor="middle" x="173.91" y="-132.3" font-family="Times,serif" font-size="14.00"> </text>
<polyline fill="none" stroke="black" points="183.66,-124.1 183.66,-148.9 "/>
<text text-anchor="middle" x="195.55" y="-132.3" font-family="Times,serif" font-size="14.00">F</text>
<polyline fill="none" stroke="black" points="207.44,-124.1 207.44,-148.9 "/>
<text text-anchor="middle" x="217.19" y="-132.3" font-family="Times,serif" font-size="14.00"> </text>
</g>
<!-- node3&#45;&gt;node5 -->
<g id="edge5" class="edge">
<title>node3:f1&#45;&gt;node5:f1</title>
<path fill="none" stroke="black" d="M155.55,-185.4C155.55,-165.59 182.98,-170.31 192.41,-158.93"/>
<polygon fill="black" stroke="black" points="195.75,-159.99 195.55,-149.4 189.1,-157.8 195.75,-159.99"/>
</g>
<!-- node6 -->
<g id="node7" class="node">
<title>node6</title>
<polygon fill="none" stroke="black" points="245,-124.1 245,-148.9 310.11,-148.9 310.11,-124.1 245,-124.1"/>
<text text-anchor="middle" x="254.75" y="-132.3" font-family="Times,serif" font-size="14.00"> </text>
<polyline fill="none" stroke="black" points="264.5,-124.1 264.5,-148.9 "/>
<text text-anchor="middle" x="277.55" y="-132.3" font-family="Times,serif" font-size="14.00">H</text>
<polyline fill="none" stroke="black" points="290.61,-124.1 290.61,-148.9 "/>
<text text-anchor="middle" x="300.36" y="-132.3" font-family="Times,serif" font-size="14.00"> </text>
</g>
<!-- node3&#45;&gt;node6 -->
<g id="edge6" class="edge">
<title>node3:f2&#45;&gt;node6:f2</title>
<path fill="none" stroke="black" d="M189.55,-198.3C213.24,-198.3 281.04,-181.35 297.11,-158.94"/>
<polygon fill="black" stroke="black" points="300.45,-159.99 300.55,-149.4 293.86,-157.62 300.45,-159.99"/>
</g>
<!-- node7 -->
<g id="node8" class="node">
<title>node7</title>
<polygon fill="none" stroke="black" points="247.72,-62.3 247.72,-87.1 307.38,-87.1 307.38,-62.3 247.72,-62.3"/>
<text text-anchor="middle" x="257.47" y="-70.5" font-family="Times,serif" font-size="14.00"> </text>
<polyline fill="none" stroke="black" points="267.22,-62.3 267.22,-87.1 "/>
<text text-anchor="middle" x="277.55" y="-70.5" font-family="Times,serif" font-size="14.00">I</text>
<polyline fill="none" stroke="black" points="287.88,-62.3 287.88,-87.1 "/>
<text text-anchor="middle" x="297.63" y="-70.5" font-family="Times,serif" font-size="14.00"> </text>
</g>
<!-- node6&#45;&gt;node7 -->
<g id="edge7" class="edge">
<title>node6:f1&#45;&gt;node7:f1</title>
<path fill="none" stroke="black" d="M277.55,-123.6C277.55,-111.6 277.55,-106.35 277.55,-97.72"/>
<polygon fill="black" stroke="black" points="281.05,-97.6 277.55,-87.6 274.05,-97.6 281.05,-97.6"/>
</g>
<!-- node8 -->
<g id="node9" class="node">
<title>node8</title>
<polygon fill="none" stroke="black" points="267.33,-0.5 267.33,-25.3 327.78,-25.3 327.78,-0.5 267.33,-0.5"/>
<text text-anchor="middle" x="277.08" y="-8.7" font-family="Times,serif" font-size="14.00"> </text>
<polyline fill="none" stroke="black" points="286.83,-0.5 286.83,-25.3 "/>
<text text-anchor="middle" x="297.55" y="-8.7" font-family="Times,serif" font-size="14.00">J</text>
<polyline fill="none" stroke="black" points="308.28,-0.5 308.28,-25.3 "/>
<text text-anchor="middle" x="318.03" y="-8.7" font-family="Times,serif" font-size="14.00"> </text>
</g>
<!-- node7&#45;&gt;node8 -->
<g id="edge8" class="edge">
<title>node7:f1&#45;&gt;node8:f0</title>
<path fill="none" stroke="black" d="M277.55,-61.8C277.55,-49.8 277.55,-44.55 277.55,-35.92"/>
<polygon fill="black" stroke="black" points="281.05,-35.8 277.55,-25.8 274.05,-35.8 281.05,-35.8"/>
</g>
</g>
</svg>
