<?xml version="1.0" encoding="UTF-8" standalone="no"?>
<!DOCTYPE svg PUBLIC "-//W3C//DTD SVG 1.1//EN"
 "http://www.w3.org/Graphics/SVG/1.1/DTD/svg11.dtd">
<!-- Generated by graphviz version 2.42.1 (20190717.1914)
 -->
<!-- Title: graphname Pages: 1 -->
<svg width="242pt" height="98pt"
 viewBox="0.00 0.00 242.00 98.00" xmlns="http://www.w3.org/2000/svg" xmlns:xlink="http://www.w3.org/1999/xlink">
<g id="graph0" class="graph" transform="scale(1 1) rotate(0) translate(4 94)">
<title>graphname</title>
<polygon fill="white" stroke="transparent" points="-4,4 -4,-94 238,-94 238,4 -4,4"/>
<!-- a -->
<g id="node1" class="node">
<title>a</title>
<ellipse fill="none" stroke="black" cx="27" cy="-41" rx="27" ry="18"/>
<text text-anchor="middle" x="27" y="-36.8" font-family="Times,serif" font-size="14.00">a</text>
</g>
<!-- b -->
<g id="node2" class="node">
<title>b</title>
<ellipse fill="none" stroke="black" cx="117" cy="-64" rx="27" ry="18"/>
<text text-anchor="middle" x="117" y="-59.8" font-family="Times,serif" font-size="14.00">b</text>
</g>
<!-- a&#45;&#45;b -->
<g id="edge1" class="edge">
<title>a&#45;&#45;b</title>
<path fill="none" stroke="black" d="M52.51,-47.41C64.72,-50.6 79.43,-54.44 91.62,-57.63"/>
</g>
<!-- c -->
<g id="node3" class="node">
<title>c</title>
<ellipse fill="none" stroke="black" cx="207" cy="-72" rx="27" ry="18"/>
<text text-anchor="middle" x="207" y="-67.8" font-family="Times,serif" font-size="14.00">c</text>
</g>
<!-- b&#45;&#45;c -->
<g id="edge2" class="edge">
<title>b&#45;&#45;c</title>
<path fill="none" stroke="black" d="M143.93,-66.36C155.28,-67.39 168.58,-68.6 179.95,-69.63"/>
</g>
<!-- d -->
<g id="node4" class="node">
<title>d</title>
<ellipse fill="none" stroke="black" cx="207" cy="-18" rx="27" ry="18"/>
<text text-anchor="middle" x="207" y="-13.8" font-family="Times,serif" font-size="14.00">d</text>
</g>
<!-- b&#45;&#45;d -->
<g id="edge3" class="edge">
<title>b&#45;&#45;d</title>
<path fill="none" stroke="black" d="M138.85,-53.1C152.88,-45.77 171.3,-36.14 185.29,-28.82"/>
</g>
<!-- d&#45;&#45;a -->
<g id="edge4" class="edge">
<title>d&#45;&#45;a</title>
<path fill="none" stroke="black" d="M180.37,-21.31C146.66,-25.67 87.73,-33.28 53.88,-37.66"/>
</g>
</g>
</svg>
