<?xml version="1.0" encoding="UTF-8" standalone="no"?>
<!DOCTYPE svg PUBLIC "-//W3C//DTD SVG 1.1//EN"
 "http://www.w3.org/Graphics/SVG/1.1/DTD/svg11.dtd">
<!-- Generated by graphviz version 2.42.1 (20190717.1914)
 -->
<!-- Title: g Pages: 1 -->
<svg width="176pt" height="423pt"
 viewBox="0.00 0.00 176.10 423.20" xmlns="http://www.w3.org/2000/svg" xmlns:xlink="http://www.w3.org/1999/xlink">
<g id="graph0" class="graph" transform="scale(1 1) rotate(0) translate(4 419.2)">
<title>g</title>
<polygon fill="white" stroke="transparent" points="-4,4 -4,-419.2 172.1,-419.2 172.1,4 -4,4"/>
<!-- a -->
<g id="node1" class="node">
<title>a</title>
<polygon fill="#abacba" stroke="black" points="140.46,-415 61.54,-415 61.54,-373.8 140.46,-373.8 140.46,-415"/>
<text text-anchor="middle" x="101" y="-398.6" font-family="Times,serif" font-size="14.00">Server1</text>
<text text-anchor="middle" x="101" y="-381.8" font-family="Times,serif" font-size="14.00">WebServer</text>
</g>
<!-- b -->
<g id="node2" class="node">
<title>b</title>
<polygon fill="red" stroke="black" points="101,-325.16 74,-337.6 47,-325.16 57.31,-305.04 90.69,-305.04 101,-325.16"/>
<text text-anchor="middle" x="74" y="-315.4" font-family="Times,serif" font-size="14.00">bb</text>
</g>
<!-- a&#45;&gt;b -->
<g id="edge1" class="edge">
<title>a&#45;&gt;b</title>
<path fill="none" stroke="black" d="M93.62,-373.51C90.32,-364.6 86.4,-354.03 82.93,-344.68"/>
<polygon fill="black" stroke="black" points="86.16,-343.32 79.4,-335.16 79.59,-345.75 86.16,-343.32"/>
</g>
<!-- c -->
<g id="node3" class="node">
<title>c</title>
<ellipse fill="none" stroke="black" cx="101" cy="-247.6" rx="27" ry="18"/>
<text text-anchor="middle" x="101" y="-243.4" font-family="Times,serif" font-size="14.00">c</text>
</g>
<!-- b&#45;&gt;c -->
<g id="edge2" class="edge">
<title>b&#45;&gt;c</title>
<path fill="none" stroke="black" d="M79.33,-304.77C82.67,-296.13 87.06,-284.74 91.02,-274.48"/>
<polygon fill="black" stroke="black" points="94.3,-275.7 94.63,-265.11 87.77,-273.18 94.3,-275.7"/>
</g>
<!-- c&#45;&gt;a -->
<g id="edge3" class="edge">
<title>c&#45;&gt;a</title>
<path fill="none" stroke="black" d="M104.65,-265.69C106.68,-276.03 108.98,-289.51 110,-301.6 111.34,-317.54 111.28,-321.65 110,-337.6 109.32,-346.06 108.08,-355.17 106.72,-363.53"/>
<polygon fill="black" stroke="black" points="103.23,-363.16 104.98,-373.61 110.13,-364.35 103.23,-363.16"/>
</g>
<!-- d -->
<g id="node4" class="node">
<title>d</title>
<ellipse fill="none" stroke="black" cx="101" cy="-175.6" rx="18" ry="18"/>
<text text-anchor="middle" x="101" y="-171.4" font-family="Times,serif" font-size="14.00">d</text>
</g>
<!-- c&#45;&gt;d -->
<g id="edge4" class="edge">
<title>c&#45;&gt;d</title>
<path fill="none" stroke="black" d="M101,-229.3C101,-221.58 101,-212.31 101,-203.71"/>
<polygon fill="black" stroke="black" points="104.5,-203.7 101,-193.7 97.5,-203.7 104.5,-203.7"/>
</g>
<!-- e -->
<g id="node5" class="node">
<title>e</title>
<polygon fill="none" stroke="black" points="63,-121.4 32.21,-84.5 93.79,-84.5 63,-121.4"/>
<text text-anchor="middle" x="63" y="-92.6" font-family="Times,serif" font-size="14.00">e</text>
</g>
<!-- d&#45;&gt;e -->
<g id="edge5" class="edge">
<title>d&#45;&gt;e</title>
<path fill="none" stroke="black" d="M93.31,-159.06C88.04,-148.41 80.94,-134.06 74.94,-121.94"/>
<polygon fill="black" stroke="black" points="77.99,-120.21 70.42,-112.8 71.72,-123.31 77.99,-120.21"/>
</g>
<!-- g -->
<g id="node7" class="node">
<title>g</title>
<polygon fill="none" stroke="black" points="168.19,-114.8 111.81,-114.8 125.35,-78.8 154.65,-78.8 168.19,-114.8"/>
<text text-anchor="middle" x="140" y="-92.6" font-family="Times,serif" font-size="14.00">g</text>
</g>
<!-- d&#45;&gt;g -->
<g id="edge7" class="edge">
<title>d&#45;&gt;g</title>
<path fill="none" stroke="black" d="M108.89,-159.06C114.02,-148.96 120.83,-135.54 126.78,-123.84"/>
<polygon fill="black" stroke="black" points="129.9,-125.42 131.31,-114.92 123.66,-122.25 129.9,-125.42"/>
</g>
<!-- f -->
<g id="node6" class="node">
<title>f</title>
<polygon fill="none" stroke="black" points="54,-36 9.87,-36 0,0 44.13,0 54,-36"/>
<text text-anchor="middle" x="27" y="-13.8" font-family="Times,serif" font-size="14.00">f</text>
</g>
<!-- e&#45;&gt;f -->
<g id="edge6" class="edge">
<title>e&#45;&gt;f</title>
<path fill="none" stroke="black" d="M57.69,-84.47C52.87,-74.19 45.59,-58.66 39.33,-45.3"/>
<polygon fill="black" stroke="black" points="42.41,-43.63 35,-36.07 36.07,-46.61 42.41,-43.63"/>
</g>
<!-- h -->
<g id="node8" class="node">
<title>h</title>
<polygon fill="none" stroke="black" points="114.65,-36 85.35,-36 71.81,0 128.19,0 114.65,-36"/>
<text text-anchor="middle" x="100" y="-13.8" font-family="Times,serif" font-size="14.00">h</text>
</g>
<!-- e&#45;&gt;h -->
<g id="edge8" class="edge">
<title>e&#45;&gt;h</title>
<path fill="none" stroke="black" d="M68.46,-84.47C73.41,-74.19 80.89,-58.66 87.33,-45.3"/>
<polygon fill="black" stroke="black" points="90.59,-46.59 91.78,-36.07 84.28,-43.56 90.59,-46.59"/>
</g>
</g>
</svg>
