<?xml version="1.0" encoding="UTF-8" standalone="no"?>
<!DOCTYPE svg PUBLIC "-//W3C//DTD SVG 1.1//EN"
 "http://www.w3.org/Graphics/SVG/1.1/DTD/svg11.dtd">
<!-- Generated by graphviz version 2.42.1 (20190717.1914)
 -->
<!-- Title: structs Pages: 1 -->
<svg width="262pt" height="156pt"
 viewBox="0.00 0.00 261.65 156.40" xmlns="http://www.w3.org/2000/svg" xmlns:xlink="http://www.w3.org/1999/xlink">
<g id="graph0" class="graph" transform="scale(1 1) rotate(0) translate(4 152.4)">
<title>structs</title>
<polygon fill="white" stroke="transparent" points="-4,4 -4,-152.4 257.65,-152.4 257.65,4 -4,4"/>
<!-- struct1 -->
<g id="node1" class="node">
<title>struct1</title>
<polygon fill="none" stroke="black" points="6.86,-111.9 6.86,-147.9 142.35,-147.9 142.35,-111.9 6.86,-111.9"/>
<text text-anchor="middle" x="24.19" y="-125.7" font-family="Times,serif" font-size="14.00">left</text>
<polyline fill="none" stroke="black" points="41.52,-111.9 41.52,-147.9 "/>
<text text-anchor="middle" x="70.71" y="-125.7" font-family="Times,serif" font-size="14.00">mid dle</text>
<polyline fill="none" stroke="black" points="99.91,-111.9 99.91,-147.9 "/>
<text text-anchor="middle" x="121.13" y="-125.7" font-family="Times,serif" font-size="14.00">right</text>
</g>
<!-- struct2 -->
<g id="node2" class="node">
<title>struct2</title>
<polygon fill="none" stroke="black" points="0,-19.7 0,-55.7 73.21,-55.7 73.21,-19.7 0,-19.7"/>
<text text-anchor="middle" x="18.11" y="-33.5" font-family="Times,serif" font-size="14.00">one</text>
<polyline fill="none" stroke="black" points="36.21,-19.7 36.21,-55.7 "/>
<text text-anchor="middle" x="54.71" y="-33.5" font-family="Times,serif" font-size="14.00">two</text>
</g>
<!-- struct1&#45;&gt;struct2 -->
<g id="edge1" class="edge">
<title>struct1:f1&#45;&gt;struct2:f0</title>
<path fill="none" stroke="black" d="M70.61,-111.4C70.61,-81.79 30.08,-87.97 20.58,-66.75"/>
<polygon fill="black" stroke="black" points="23.97,-65.84 18.61,-56.7 17.1,-67.19 23.97,-65.84"/>
</g>
<!-- struct3 -->
<g id="node3" class="node">
<title>struct3</title>
<polygon fill="none" stroke="black" points="91.56,-0.5 91.56,-74.9 253.65,-74.9 253.65,-0.5 91.56,-0.5"/>
<text text-anchor="middle" x="115.89" y="-41.9" font-family="Times,serif" font-size="14.00">hello</text>
<text text-anchor="middle" x="115.89" y="-25.1" font-family="Times,serif" font-size="14.00">world</text>
<polyline fill="none" stroke="black" points="140.22,-0.5 140.22,-74.9 "/>
<text text-anchor="middle" x="173.93" y="-58.3" font-family="Times,serif" font-size="14.00">b</text>
<polyline fill="none" stroke="black" points="140.22,-50.1 207.65,-50.1 "/>
<text text-anchor="middle" x="151.33" y="-33.5" font-family="Times,serif" font-size="14.00">c</text>
<polyline fill="none" stroke="black" points="162.43,-25.3 162.43,-50.1 "/>
<text text-anchor="middle" x="173.93" y="-33.5" font-family="Times,serif" font-size="14.00">d</text>
<polyline fill="none" stroke="black" points="185.43,-25.3 185.43,-50.1 "/>
<text text-anchor="middle" x="196.54" y="-33.5" font-family="Times,serif" font-size="14.00">e</text>
<polyline fill="none" stroke="black" points="140.22,-25.3 207.65,-25.3 "/>
<text text-anchor="middle" x="173.93" y="-8.7" font-family="Times,serif" font-size="14.00">f</text>
<polyline fill="none" stroke="black" points="207.65,-0.5 207.65,-74.9 "/>
<text text-anchor="middle" x="219.15" y="-33.5" font-family="Times,serif" font-size="14.00">g</text>
<polyline fill="none" stroke="black" points="230.65,-0.5 230.65,-74.9 "/>
<text text-anchor="middle" x="242.15" y="-33.5" font-family="Times,serif" font-size="14.00">h</text>
</g>
<!-- struct1&#45;&gt;struct3 -->
<g id="edge2" class="edge">
<title>struct1:f2&#45;&gt;struct3:here</title>
<path fill="none" stroke="black" d="M121.61,-111.4C121.61,-99.36 140.38,-75.18 155.37,-57.79"/>
<polygon fill="black" stroke="black" points="158.35,-59.71 162.32,-49.89 153.09,-55.08 158.35,-59.71"/>
</g>
</g>
</svg>
