<?xml version="1.0" encoding="UTF-8" standalone="no"?>
<!DOCTYPE svg PUBLIC "-//W3C//DTD SVG 1.1//EN"
 "http://www.w3.org/Graphics/SVG/1.1/DTD/svg11.dtd">
<!-- Generated by graphviz version 2.42.1 (20190717.1914)
 -->
<!-- Title: g Pages: 1 -->
<svg width="204pt" height="409pt"
 viewBox="0.00 0.00 204.00 408.80" xmlns="http://www.w3.org/2000/svg" xmlns:xlink="http://www.w3.org/1999/xlink">
<g id="graph0" class="graph" transform="scale(1 1) rotate(0) translate(4 404.8)">
<title>g</title>
<polygon fill="white" stroke="transparent" points="-4,4 -4,-404.8 200,-404.8 200,4 -4,4"/>
<g id="clust1" class="cluster">
<title>cluster0</title>
<polygon fill="red" stroke="red" points="8,-64 8,-356.8 83,-356.8 83,-64 8,-64"/>
<text text-anchor="middle" x="45.5" y="-340.2" font-family="Times,serif" font-size="14.00">process #1</text>
</g>
<g id="clust2" class="cluster">
<title>cluster1</title>
<polygon fill="blue" stroke="blue" points="113,-64 113,-356.8 188,-356.8 188,-64 113,-64"/>
<text text-anchor="middle" x="150.5" y="-340.2" font-family="Times,serif" font-size="14.00">process #2</text>
</g>
<!-- a0 -->
<g id="node1" class="node">
<title>a0</title>
<ellipse fill="white" stroke="white" cx="48" cy="-306" rx="27" ry="18"/>
<text text-anchor="middle" x="48" y="-301.8" font-family="Times,serif" font-size="14.00">a0</text>
</g>
<!-- a1 -->
<g id="node2" class="node">
<title>a1</title>
<ellipse fill="white" stroke="white" cx="48" cy="-234" rx="27" ry="18"/>
<text text-anchor="middle" x="48" y="-229.8" font-family="Times,serif" font-size="14.00">a1</text>
</g>
<!-- a0&#45;&gt;a1 -->
<g id="edge1" class="edge">
<title>a0&#45;&gt;a1</title>
<path fill="none" stroke="black" d="M48,-287.7C48,-279.98 48,-270.71 48,-262.11"/>
<polygon fill="black" stroke="black" points="51.5,-262.1 48,-252.1 44.5,-262.1 51.5,-262.1"/>
</g>
<!-- a2 -->
<g id="node3" class="node">
<title>a2</title>
<ellipse fill="white" stroke="white" cx="43" cy="-162" rx="27" ry="18"/>
<text text-anchor="middle" x="43" y="-157.8" font-family="Times,serif" font-size="14.00">a2</text>
</g>
<!-- a1&#45;&gt;a2 -->
<g id="edge2" class="edge">
<title>a1&#45;&gt;a2</title>
<path fill="none" stroke="black" d="M46.76,-215.7C46.21,-207.98 45.55,-198.71 44.94,-190.11"/>
<polygon fill="black" stroke="black" points="48.43,-189.83 44.22,-180.1 41.44,-190.33 48.43,-189.83"/>
</g>
<!-- b3 -->
<g id="node8" class="node">
<title>b3</title>
<ellipse fill="white" stroke="white" cx="148" cy="-90" rx="27" ry="18"/>
<text text-anchor="middle" x="148" y="-85.8" font-family="Times,serif" font-size="14.00">b3</text>
</g>
<!-- a1&#45;&gt;b3 -->
<g id="edge9" class="edge">
<title>a1&#45;&gt;b3</title>
<path fill="none" stroke="black" d="M59.08,-217.26C76.5,-192.52 110.42,-144.37 130.96,-115.2"/>
<polygon fill="black" stroke="black" points="133.97,-117 136.87,-106.81 128.25,-112.97 133.97,-117"/>
</g>
<!-- a3 -->
<g id="node4" class="node">
<title>a3</title>
<ellipse fill="white" stroke="white" cx="48" cy="-90" rx="27" ry="18"/>
<text text-anchor="middle" x="48" y="-85.8" font-family="Times,serif" font-size="14.00">a3</text>
</g>
<!-- a2&#45;&gt;a3 -->
<g id="edge3" class="edge">
<title>a2&#45;&gt;a3</title>
<path fill="none" stroke="black" d="M44.24,-143.7C44.79,-135.98 45.45,-126.71 46.06,-118.11"/>
<polygon fill="black" stroke="black" points="49.56,-118.33 46.78,-108.1 42.57,-117.83 49.56,-118.33"/>
</g>
<!-- end -->
<g id="node10" class="node">
<title>end</title>
<ellipse fill="none" stroke="black" cx="98" cy="-18" rx="27" ry="18"/>
<text text-anchor="middle" x="98" y="-13.8" font-family="Times,serif" font-size="14.00">end</text>
</g>
<!-- a3&#45;&gt;end -->
<g id="edge11" class="edge">
<title>a3&#45;&gt;end</title>
<path fill="none" stroke="black" d="M59.1,-73.46C65.51,-64.49 73.7,-53.02 80.92,-42.92"/>
<polygon fill="black" stroke="black" points="83.97,-44.66 86.93,-34.49 78.27,-40.59 83.97,-44.66"/>
</g>
<!-- b0 -->
<g id="node5" class="node">
<title>b0</title>
<ellipse fill="white" stroke="white" cx="148" cy="-306" rx="27" ry="18"/>
<text text-anchor="middle" x="148" y="-301.8" font-family="Times,serif" font-size="14.00">b0</text>
</g>
<!-- b1 -->
<g id="node6" class="node">
<title>b1</title>
<ellipse fill="white" stroke="white" cx="150" cy="-234" rx="27" ry="18"/>
<text text-anchor="middle" x="150" y="-229.8" font-family="Times,serif" font-size="14.00">b1</text>
</g>
<!-- b0&#45;&gt;b1 -->
<g id="edge4" class="edge">
<title>b0&#45;&gt;b1</title>
<path fill="none" stroke="black" d="M148.49,-287.7C148.71,-279.98 148.98,-270.71 149.23,-262.11"/>
<polygon fill="black" stroke="black" points="152.72,-262.2 149.51,-252.1 145.73,-262 152.72,-262.2"/>
</g>
<!-- b2 -->
<g id="node7" class="node">
<title>b2</title>
<ellipse fill="white" stroke="white" cx="153" cy="-162" rx="27" ry="18"/>
<text text-anchor="middle" x="153" y="-157.8" font-family="Times,serif" font-size="14.00">b2</text>
</g>
<!-- b1&#45;&gt;b2 -->
<g id="edge5" class="edge">
<title>b1&#45;&gt;b2</title>
<path fill="none" stroke="black" d="M150.74,-215.7C151.07,-207.98 151.47,-198.71 151.84,-190.11"/>
<polygon fill="black" stroke="black" points="155.34,-190.25 152.27,-180.1 148.34,-189.95 155.34,-190.25"/>
</g>
<!-- b2&#45;&gt;a3 -->
<g id="edge10" class="edge">
<title>b2&#45;&gt;a3</title>
<path fill="none" stroke="black" d="M134.23,-148.49C117.73,-137.49 93.52,-121.35 74.95,-108.97"/>
<polygon fill="black" stroke="black" points="76.87,-106.04 66.61,-103.41 72.99,-111.87 76.87,-106.04"/>
</g>
<!-- b2&#45;&gt;b3 -->
<g id="edge6" class="edge">
<title>b2&#45;&gt;b3</title>
<path fill="none" stroke="black" d="M151.76,-143.7C151.21,-135.98 150.55,-126.71 149.94,-118.11"/>
<polygon fill="black" stroke="black" points="153.43,-117.83 149.22,-108.1 146.44,-118.33 153.43,-117.83"/>
</g>
<!-- b3&#45;&gt;end -->
<g id="edge12" class="edge">
<title>b3&#45;&gt;end</title>
<path fill="none" stroke="black" d="M136.9,-73.46C130.49,-64.49 122.3,-53.02 115.08,-42.92"/>
<polygon fill="black" stroke="black" points="117.73,-40.59 109.07,-34.49 112.03,-44.66 117.73,-40.59"/>
</g>
<!-- start -->
<g id="node9" class="node">
<title>start</title>
<ellipse fill="none" stroke="black" cx="98" cy="-382.8" rx="27.82" ry="18"/>
<text text-anchor="middle" x="98" y="-378.6" font-family="Times,serif" font-size="14.00">start</text>
</g>
<!-- start&#45;&gt;a0 -->
<g id="edge7" class="edge">
<title>start&#45;&gt;a0</title>
<path fill="none" stroke="black" d="M87.4,-365.94C80.7,-355.92 71.92,-342.78 64.34,-331.45"/>
<polygon fill="black" stroke="black" points="67.06,-329.21 58.59,-322.84 61.24,-333.1 67.06,-329.21"/>
</g>
<!-- start&#45;&gt;b0 -->
<g id="edge8" class="edge">
<title>start&#45;&gt;b0</title>
<path fill="none" stroke="black" d="M108.6,-365.94C115.3,-355.92 124.08,-342.78 131.66,-331.45"/>
<polygon fill="black" stroke="black" points="134.76,-333.1 137.41,-322.84 128.94,-329.21 134.76,-333.1"/>
</g>
</g>
</svg>
